PathFileType	4	(X/Y/Z)	RBDS05static.trc
DataRate	CameraRate	NumFrames	NumMarkers	Units	OrigDataRate	OrigDataStartFrame	OrigNumFrames
150.000000	150.000000	4	48	mm	150.000000	0	150
Frame#	Time	L.Ankle			L.Ankle.Medial			L.ASIS			L.GTR			L.Heel.Bottom			L.Heel.Lateral			L.Heel.Top			L.HF			L.Iliac.Crest			L.Knee			L.Knee.Medial			L.MT1			L.MT2			L.MT5			L.PSIS			L.Shank.Bottom.Lateral			L.Shank.Bottom.Medial			L.Shank.Top.Lateral			L.Shank.Top.Medial			L.Thigh.Bottom.Lateral			L.Thigh.Bottom.Medial			L.Thigh.Top.Lateral			L.Thigh.Top.Medial			L.TT			R.Ankle			R.Ankle.Medial			R.ASIS			R.GTR			R.Heel.Bottom			R.Heel.Lateral			R.Heel.Top			R.HF			R.Iliac.Crest			R.Knee			R.Knee.Medial			R.MT1			R.MT2			R.MT5			R.PSIS			R.Shank.Bottom.Lateral			R.Shank.Bottom.Medial			R.Shank.Top.Lateral			R.Shank.Top.Medial			R.Thigh.Bottom.Lateral			R.Thigh.Bottom.Medial			R.Thigh.Top.Lateral			R.Thigh.Top.Medial			R.TT			
		X1	Y1	Z1	X2	Y2	Z2	X3	Y3	Z3	X4	Y4	Z4	X5	Y5	Z5	X6	Y6	Z6	X7	Y7	Z7	X8	Y8	Z8	X9	Y9	Z9	X10	Y10	Z10	X11	Y11	Z11	X12	Y12	Z12	X13	Y13	Z13	X14	Y14	Z14	X15	Y15	Z15	X16	Y16	Z16	X17	Y17	Z17	X18	Y18	Z18	X19	Y19	Z19	X20	Y20	Z20	X21	Y21	Z21	X22	Y22	Z22	X23	Y23	Z23	X24	Y24	Z24	X25	Y25	Z25	X26	Y26	Z26	X27	Y27	Z27	X28	Y28	Z28	X29	Y29	Z29	X30	Y30	Z30	X31	Y31	Z31	X32	Y32	Z32	X33	Y33	Z33	X34	Y34	Z34	X35	Y35	Z35	X36	Y36	Z36	X37	Y37	Z37	X38	Y38	Z38	X39	Y39	Z39	X40	Y40	Z40	X41	Y41	Z41	X42	Y42	Z42	X43	Y43	Z43	X44	Y44	Z44	X45	Y45	Z45	X46	Y46	Z46	X47	Y47	Z47	X48	Y48	Z48	

1	0	700.16943359375	104.8350143432617	1043.679443359375	726.21142578125	110.0341567993164	1122.641723632813	832.7461547851563	979.15380859375	1106.895141601563	753.4690551757813	888.79931640625	1059.042114257813	637.7455444335938	38.24670791625977	1080.553466796875	671.2977294921875	57.3867301940918	1039.910888671875	648.7879638671875	87.43827819824219	1082.861083984375	731.8121948242188	449.6364440917969	1050.8115234375	760.7167358398438	1038.638549804688	1067.404296875	741.066162109375	500.7834167480469	1058.029052734375	742.4454345703125	488.4566955566406	1175.504638671875	840.9598388671875	56.93935394287109	1127.258544921875	851.3663940429688	66.89033508300781	1074.54833984375	820.5050659179688	50.92067337036133	1022.153442382813	674.2322387695313	1002.811157226563	1170.814331054688	709.6149291992188	185.3923797607422	1037.845703125	669.470947265625	182.7443084716797	1069.378051757813	706.0068359375	265.7373657226563	1033.00341796875	665.3308715820313	267.4594116210938	1067.025268554688	756.1506958007813	631.0577392578125	1043.232788085938	693.8489990234375	624.2692260742188	1081.064331054688	739.774169921875	740.5618286132813	1043.439208984375	686.2235107421875	734.2888793945313	1086.197265625	789.1720581054688	422.0656433105469	1097.567138671875	692.6863403320313	107.1969146728516	1408.729858398438	716.4877319335938	118.4864044189453	1334.619506835938	825.4690551757813	987.691162109375	1336.877563476563	741.8296508789063	894.0792846679688	1383.439697265625	631.0474853515625	39.41367721557617	1371.577270507813	659.0504150390625	53.80418395996094	1409.656860351563	640.8458862304688	87.29411315917969	1371.910888671875	720.72802734375	460.7731323242188	1389.649169921875	766.1007690429688	1030.79931640625	1362.646118164063	734.0265502929688	513.9912109375	1384.227416992188	755.871826171875	491.8073120117188	1273.385498046875	834.678955078125	58.20559692382813	1329.225341796875	841.5195922851563	72.7384033203125	1370.13916015625	814.9586791992188	52.66807174682617	1434.476440429688	676.0921630859375	1010.515747070313	1259.026611328125	693.02587890625	195.5389556884766	1411.984130859375	657.0053100585938	194.0171356201172	1370.57568359375	687.6099853515625	276.5665283203125	1410.943481445313	653.9295654296875	273.8258972167969	1369.262817382813	752.7611083984375	607.9351196289063	1399.698608398438	689.76416015625	601.7508544921875	1361.172485351563	738.4857788085938	717.7718505859375	1400.257080078125	680.488525390625	711.6862182617188	1360.614013671875	783.0745849609375	429.5567626953125	1355.735717773438	
2	0.006666666666666667	700.1759643554688	104.8352813720703	1043.661987304688	726.2095336914063	110.0207748413086	1122.639282226563	832.7520751953125	979.1470947265625	1106.921508789063	753.47412109375	888.7977905273438	1059.047241210938	637.7447509765625	38.23459243774414	1080.556396484375	671.300048828125	57.37837982177734	1039.914794921875	648.7882690429688	87.43174743652344	1082.859375	731.8012084960938	449.6385498046875	1050.811889648438	760.7250366210938	1038.628173828125	1067.424682617188	741.0560913085938	500.7719116210938	1058.0380859375	742.4249877929688	488.4712524414063	1175.522094726563	840.9601440429688	56.94363784790039	1127.270629882813	851.3655395507813	66.892822265625	1074.543823242188	820.5125122070313	50.92223739624023	1022.157958984375	674.236083984375	1002.811279296875	1170.824951171875	709.6105346679688	185.3967437744141	1037.843994140625	669.465087890625	182.7512969970703	1069.379516601563	705.9955444335938	265.746337890625	1033.006103515625	665.3216552734375	267.4598388671875	1067.038696289063	756.1212158203125	631.0571899414063	1043.237060546875	693.8348388671875	624.2748413085938	1081.0673828125	739.7576293945313	740.5667114257813	1043.449462890625	686.2142944335938	734.287109375	1086.217163085938	789.1393432617188	421.9920043945313	1097.346435546875	692.6798706054688	107.1833648681641	1408.738037109375	716.48486328125	118.4825897216797	1334.625732421875	825.463623046875	987.6846923828125	1336.90185546875	741.82568359375	894.0843505859375	1383.455932617188	631.0484008789063	39.41094207763672	1371.57421875	659.0552368164063	53.80302047729492	1409.652587890625	640.8427734375	87.29418182373047	1371.906372070313	720.7158813476563	460.7752685546875	1389.656616210938	766.1104736328125	1030.803100585938	1362.648559570313	734.0150756835938	513.9927978515625	1384.232299804688	755.8638305664063	491.8231506347656	1273.385131835938	834.6744384765625	58.20462799072266	1329.227294921875	841.52294921875	72.74457550048828	1370.138671875	814.9569091796875	52.67726898193359	1434.485473632813	676.0759887695313	1010.530334472656	1259.025024414063	693.0173950195313	195.5419464111328	1411.989501953125	657.0018920898438	194.0166473388672	1370.576049804688	687.5952758789063	276.5686645507813	1410.951416015625	653.9235229492188	273.8197937011719	1369.267944335938	752.7516479492188	607.9391479492188	1399.713256835938	689.7494506835938	601.7499389648438	1361.180419921875	738.478271484375	717.766845703125	1400.270751953125	680.467529296875	711.694091796875	1360.635375976563	783.08056640625	429.5536804199219	1355.74755859375	
3	0.01333333333333333	700.179443359375	104.8234100341797	1043.662109375	726.2172241210938	110.0297470092773	1122.634033203125	832.75439453125	979.1338500976563	1106.923217773438	753.4746704101563	888.79150390625	1059.063110351563	637.7387084960938	38.23850250244141	1080.561889648438	671.291015625	57.38574600219727	1039.916381835938	648.7826538085938	87.42324066162109	1082.85400390625	731.78515625	449.6414489746094	1050.829833984375	760.7291259765625	1038.610107421875	1067.44287109375	741.0401000976563	500.7779846191406	1058.041625976563	742.4326171875	488.4652709960938	1175.5166015625	840.9459228515625	56.94140625	1127.261352539063	851.3651733398438	66.89397430419922	1074.54150390625	820.5089111328125	50.92653656005859	1022.156799316406	674.2393798828125	1002.806884765625	1170.837036132813	709.5977783203125	185.3943481445313	1037.848388671875	669.45166015625	182.7449645996094	1069.380249023438	705.9854125976563	265.7437133789063	1033.009399414063	665.3049926757813	267.4584655761719	1067.035034179688	756.11767578125	631.0592041015625	1043.24853515625	693.8197631835938	624.2770385742188	1081.079711914063	739.7553100585938	740.5691528320313	1043.46044921875	686.2053833007813	734.2926025390625	1086.2265625	789.1432495117188	422.04833984375	1097.55322265625	692.6810302734375	107.1975173950195	1408.732299804688	716.486328125	118.4764404296875	1334.62646484375	825.4674072265625	987.6776733398438	1336.89794921875	741.815673828125	894.0874633789063	1383.470092773438	631.0511474609375	39.40649032592773	1371.573486328125	659.047119140625	53.80460739135742	1409.643676757813	640.84228515625	87.29201507568359	1371.911254882813	720.7138061523438	460.7778930664063	1389.656494140625	766.1151733398438	1030.809936523438	1362.654663085938	734.0164184570313	513.9879150390625	1384.24267578125	755.84619140625	491.8122863769531	1273.393676757813	834.6716918945313	58.21127319335938	1329.219604492188	841.5193481445313	72.74112701416016	1370.12646484375	814.9561157226563	52.6756706237793	1434.48095703125	676.0858764648438	1010.530883789063	1259.038818359375	693.0155029296875	195.5339050292969	1411.9892578125	656.9967041015625	194.0214538574219	1370.579223632813	687.58837890625	276.5584106445313	1410.947998046875	653.9107055664063	273.8159790039063	1369.270629882813	752.7391357421875	607.9288330078125	1399.714721679688	689.74072265625	601.7406616210938	1361.191650390625	738.4613647460938	717.768310546875	1400.276611328125	680.4512939453125	711.6885375976563	1360.637451171875	783.0770263671875	429.5406799316406	1355.75146484375	
4	0.02	700.1693115234375	104.8310699462891	1043.65673828125	726.2061767578125	110.0252914428711	1122.6376953125	832.752685546875	979.1231079101563	1106.9375	753.4719848632813	888.7914428710938	1059.073852539063	637.7407836914063	38.23017883300781	1080.554321289063	671.291748046875	57.38005065917969	1039.908813476563	648.7789306640625	87.42902374267578	1082.858276367188	731.778564453125	449.6360473632813	1050.8193359375	760.7335205078125	1038.58203125	1067.46337890625	741.0327758789063	500.7814025878906	1058.046020507813	742.4107055664063	488.4578552246094	1175.522216796875	840.9391479492188	56.93806838989258	1127.266357421875	851.3584594726563	66.89437103271484	1074.536865234375	820.5025634765625	50.91728591918945	1022.147827148438	674.2288208007813	1002.814514160156	1170.85107421875	709.5755004882813	185.3963623046875	1037.852661132813	669.4456176757813	182.7379455566406	1069.38623046875	705.9717407226563	265.7416381835938	1033.017944335938	665.3003540039063	267.4464721679688	1067.048461914063	756.103759765625	631.0506591796875	1043.258422851563	693.81396484375	624.2673950195313	1081.091918945313	739.751220703125	740.5619506835938	1043.482177734375	686.1970825195313	734.2843627929688	1086.242309570313	789.1045532226563	421.9886169433594	1097.345947265625	692.6822509765625	107.1735458374023	1408.720703125	716.489013671875	118.4819564819336	1334.619750976563	825.4688720703125	987.6666870117188	1336.904663085938	741.8197021484375	894.0740966796875	1383.482666015625	631.0472412109375	39.39822006225586	1371.5703125	659.047607421875	53.79910659790039	1409.65185546875	640.8399047851563	87.29157257080078	1371.913696289063	720.716064453125	460.7653198242188	1389.669311523438	766.1138305664063	1030.80859375	1362.65625	734.0072021484375	513.984619140625	1384.240600585938	755.849853515625	491.8144226074219	1273.397827148438	834.6731567382813	58.20670318603516	1329.22607421875	841.5203857421875	72.74320983886719	1370.136962890625	814.957275390625	52.67329406738281	1434.4775390625	676.0833129882813	1010.515869140625	1259.044799804688	693.0087890625	195.5261535644531	1411.987182617188	656.9959716796875	193.9976654052734	1370.593872070313	687.59033203125	276.5504760742188	1410.952880859375	653.9054565429688	273.8143920898438	1369.268188476563	752.7332153320313	607.9234008789063	1399.720458984375	689.73095703125	601.739501953125	1361.213500976563	738.45458984375	717.751953125	1400.288696289063	680.4476318359375	711.6826782226563	1360.656982421875	783.0748901367188	429.5421447753906	1355.748779296875	
